<?xml version="1.0" standalone="no"?>
<!DOCTYPE svg PUBLIC "-//W3C//DTD SVG 20010904//EN"
 "http://www.w3.org/TR/2001/REC-SVG-20010904/DTD/svg10.dtd">
<svg version="1.0" xmlns="http://www.w3.org/2000/svg"
 width="500.000000pt" height="500.000000pt" viewBox="0 0 500.000000 500.000000"
 preserveAspectRatio="xMidYMid meet">
<metadata>
Created by potrace 1.14, written by Peter Selinger 2001-2017
</metadata>
<g transform="translate(0.000000,500.000000) scale(0.100000,-0.100000)"
fill="#000000" stroke="none">
<path d="M0 2500 l0 -2500 2500 0 2500 0 0 2500 0 2500 -2500 0 -2500 0 0
-2500z m720 1835 c67 -23 116 -69 149 -138 27 -56 49 -180 231 -1262 110 -660
206 -1215 211 -1233 16 -49 65 -100 107 -112 24 -6 558 -10 1563 -10 1441 0
1527 -1 1541 -17 28 -32 30 -58 7 -87 l-21 -26 -1561 2 -1562 3 -51 27 c-65
34 -129 106 -148 166 -8 26 -105 587 -216 1247 -140 831 -208 1213 -221 1242
-15 30 -32 47 -63 62 -38 19 -61 21 -239 21 -184 0 -198 1 -217 20 -11 11 -20
31 -20 45 0 14 9 34 20 45 19 19 33 20 234 20 163 0 223 -3 256 -15z m3929
-624 c54 -28 97 -81 110 -137 11 -45 1 -112 -114 -814 -69 -421 -128 -782
-132 -803 -10 -64 -56 -125 -116 -152 l-52 -25 -1343 0 c-1457 0 -1381 -3
-1440 53 -57 53 -57 54 -193 878 -87 529 -129 810 -126 842 5 62 47 123 106
154 l44 23 1609 0 c1573 0 1610 0 1647 -19z m-2677 -2451 c164 -82 230 -279
147 -441 -30 -60 -104 -126 -168 -150 -74 -28 -195 -23 -259 10 -65 33 -118
87 -149 149 -24 49 -28 69 -28 142 0 73 4 93 28 142 34 69 100 130 171 158 71
28 191 24 258 -10z m2194 15 c78 -24 143 -80 184 -159 32 -63 35 -77 34 -150
0 -63 -5 -91 -23 -127 -32 -68 -81 -120 -142 -154 -50 -28 -62 -30 -154 -30
-79 0 -107 4 -135 19 -71 38 -119 86 -152 153 -28 57 -33 77 -33 143 0 68 4
85 35 146 73 142 229 206 386 159z"/>
<path d="M1761 1054 c-36 -30 -49 -81 -31 -125 47 -112 213 -80 213 41 0 94
-110 145 -182 84z"/>
<path d="M4004 1061 c-90 -55 -47 -201 59 -201 60 0 117 54 117 110 0 34 -28
78 -60 95 -39 20 -79 19 -116 -4z"/>
</g>
</svg>
